<mxfile host="app.diagrams.net" modified="2024-04-30T20:05:29.173Z" agent="Mozilla/5.0 (Windows NT 10.0; Win64; x64) AppleWebKit/537.36 (KHTML, like Gecko) Chrome/123.0.0.0 Safari/537.36 OPR/109.0.0.0" etag="f4t3kU1KDSwnHrwzaA8C" version="24.3.1" type="device">
  <diagram name="Page-1" id="929967ad-93f9-6ef4-fab6-5d389245f69c">
    <mxGraphModel dx="911" dy="521" grid="1" gridSize="10" guides="1" tooltips="1" connect="1" arrows="1" fold="1" page="1" pageScale="1.5" pageWidth="1169" pageHeight="826" background="#ffffff" math="0" shadow="0">
      <root>
        <mxCell id="0" style=";html=1;" />
        <mxCell id="1" style=";html=1;" parent="0" />
        <mxCell id="_wMPgbxeTmveFU1VyZQl-7" style="edgeStyle=orthogonalEdgeStyle;rounded=0;orthogonalLoop=1;jettySize=auto;html=1;exitX=1;exitY=0.5;exitDx=0;exitDy=0;entryX=0;entryY=0.5;entryDx=0;entryDy=0;" edge="1" parent="1" source="_wMPgbxeTmveFU1VyZQl-1" target="_wMPgbxeTmveFU1VyZQl-3">
          <mxGeometry relative="1" as="geometry" />
        </mxCell>
        <mxCell id="_wMPgbxeTmveFU1VyZQl-1" value="" style="ellipse;html=1;shape=startState;fillColor=#1A1A1A;strokeColor=#666666;fontColor=#333333;" vertex="1" parent="1">
          <mxGeometry x="80" y="85" width="30" height="30" as="geometry" />
        </mxCell>
        <mxCell id="_wMPgbxeTmveFU1VyZQl-8" style="edgeStyle=orthogonalEdgeStyle;rounded=0;orthogonalLoop=1;jettySize=auto;html=1;exitX=1;exitY=0.5;exitDx=0;exitDy=0;entryX=0;entryY=0.5;entryDx=0;entryDy=0;" edge="1" parent="1" source="_wMPgbxeTmveFU1VyZQl-3" target="_wMPgbxeTmveFU1VyZQl-5">
          <mxGeometry relative="1" as="geometry" />
        </mxCell>
        <mxCell id="_wMPgbxeTmveFU1VyZQl-9" style="edgeStyle=orthogonalEdgeStyle;rounded=0;orthogonalLoop=1;jettySize=auto;html=1;exitX=0.5;exitY=1;exitDx=0;exitDy=0;entryX=0;entryY=0.5;entryDx=0;entryDy=0;" edge="1" parent="1" source="_wMPgbxeTmveFU1VyZQl-3" target="_wMPgbxeTmveFU1VyZQl-6">
          <mxGeometry relative="1" as="geometry" />
        </mxCell>
        <mxCell id="_wMPgbxeTmveFU1VyZQl-3" value="Desarrollar Documento" style="html=1;whiteSpace=wrap;" vertex="1" parent="1">
          <mxGeometry x="160" y="80" width="120" height="40" as="geometry" />
        </mxCell>
        <mxCell id="_wMPgbxeTmveFU1VyZQl-13" style="edgeStyle=orthogonalEdgeStyle;rounded=0;orthogonalLoop=1;jettySize=auto;html=1;entryX=0;entryY=0.5;entryDx=0;entryDy=0;" edge="1" parent="1" source="_wMPgbxeTmveFU1VyZQl-5" target="_wMPgbxeTmveFU1VyZQl-12">
          <mxGeometry relative="1" as="geometry" />
        </mxCell>
        <mxCell id="_wMPgbxeTmveFU1VyZQl-15" style="edgeStyle=orthogonalEdgeStyle;rounded=0;orthogonalLoop=1;jettySize=auto;html=1;entryX=0;entryY=0.5;entryDx=0;entryDy=0;" edge="1" parent="1" source="_wMPgbxeTmveFU1VyZQl-5" target="_wMPgbxeTmveFU1VyZQl-14">
          <mxGeometry relative="1" as="geometry" />
        </mxCell>
        <mxCell id="_wMPgbxeTmveFU1VyZQl-5" value="Pedir guardar cambios" style="html=1;whiteSpace=wrap;" vertex="1" parent="1">
          <mxGeometry x="360" y="80" width="120" height="40" as="geometry" />
        </mxCell>
        <mxCell id="_wMPgbxeTmveFU1VyZQl-23" style="edgeStyle=orthogonalEdgeStyle;rounded=0;orthogonalLoop=1;jettySize=auto;html=1;entryX=0;entryY=0.5;entryDx=0;entryDy=0;" edge="1" parent="1" source="_wMPgbxeTmveFU1VyZQl-6" target="_wMPgbxeTmveFU1VyZQl-21">
          <mxGeometry relative="1" as="geometry" />
        </mxCell>
        <mxCell id="_wMPgbxeTmveFU1VyZQl-25" style="edgeStyle=orthogonalEdgeStyle;rounded=0;orthogonalLoop=1;jettySize=auto;html=1;entryX=0;entryY=0.5;entryDx=0;entryDy=0;" edge="1" parent="1" source="_wMPgbxeTmveFU1VyZQl-6" target="_wMPgbxeTmveFU1VyZQl-24">
          <mxGeometry relative="1" as="geometry" />
        </mxCell>
        <mxCell id="_wMPgbxeTmveFU1VyZQl-6" value="Pedir PDF" style="html=1;whiteSpace=wrap;" vertex="1" parent="1">
          <mxGeometry x="360" y="200" width="120" height="40" as="geometry" />
        </mxCell>
        <mxCell id="_wMPgbxeTmveFU1VyZQl-17" style="edgeStyle=orthogonalEdgeStyle;rounded=0;orthogonalLoop=1;jettySize=auto;html=1;entryX=0;entryY=0.5;entryDx=0;entryDy=0;" edge="1" parent="1" source="_wMPgbxeTmveFU1VyZQl-12" target="_wMPgbxeTmveFU1VyZQl-16">
          <mxGeometry relative="1" as="geometry" />
        </mxCell>
        <mxCell id="_wMPgbxeTmveFU1VyZQl-12" value="Actualizar base de datos" style="html=1;whiteSpace=wrap;" vertex="1" parent="1">
          <mxGeometry x="600" y="40" width="120" height="40" as="geometry" />
        </mxCell>
        <mxCell id="_wMPgbxeTmveFU1VyZQl-19" style="edgeStyle=orthogonalEdgeStyle;rounded=0;orthogonalLoop=1;jettySize=auto;html=1;entryX=0;entryY=0.5;entryDx=0;entryDy=0;" edge="1" parent="1" source="_wMPgbxeTmveFU1VyZQl-14" target="_wMPgbxeTmveFU1VyZQl-18">
          <mxGeometry relative="1" as="geometry" />
        </mxCell>
        <mxCell id="_wMPgbxeTmveFU1VyZQl-14" value="Error 404" style="html=1;whiteSpace=wrap;" vertex="1" parent="1">
          <mxGeometry x="600" y="120" width="120" height="40" as="geometry" />
        </mxCell>
        <mxCell id="_wMPgbxeTmveFU1VyZQl-16" value="" style="ellipse;html=1;shape=endState;fillColor=#000000;strokeColor=#000000;" vertex="1" parent="1">
          <mxGeometry x="780" y="45" width="30" height="30" as="geometry" />
        </mxCell>
        <mxCell id="_wMPgbxeTmveFU1VyZQl-18" value="" style="ellipse;html=1;shape=endState;fillColor=#000000;strokeColor=#000000;" vertex="1" parent="1">
          <mxGeometry x="780" y="125" width="30" height="30" as="geometry" />
        </mxCell>
        <mxCell id="_wMPgbxeTmveFU1VyZQl-20" style="edgeStyle=orthogonalEdgeStyle;rounded=0;orthogonalLoop=1;jettySize=auto;html=1;entryX=0;entryY=0.5;entryDx=0;entryDy=0;" edge="1" parent="1" source="_wMPgbxeTmveFU1VyZQl-21" target="_wMPgbxeTmveFU1VyZQl-22">
          <mxGeometry relative="1" as="geometry" />
        </mxCell>
        <mxCell id="_wMPgbxeTmveFU1VyZQl-21" value="Error 404" style="html=1;whiteSpace=wrap;" vertex="1" parent="1">
          <mxGeometry x="600" y="200" width="120" height="40" as="geometry" />
        </mxCell>
        <mxCell id="_wMPgbxeTmveFU1VyZQl-22" value="" style="ellipse;html=1;shape=endState;fillColor=#000000;strokeColor=#000000;" vertex="1" parent="1">
          <mxGeometry x="780" y="205" width="30" height="30" as="geometry" />
        </mxCell>
        <mxCell id="_wMPgbxeTmveFU1VyZQl-27" style="edgeStyle=orthogonalEdgeStyle;rounded=0;orthogonalLoop=1;jettySize=auto;html=1;entryX=0.5;entryY=0;entryDx=0;entryDy=0;" edge="1" parent="1" source="_wMPgbxeTmveFU1VyZQl-24" target="_wMPgbxeTmveFU1VyZQl-26">
          <mxGeometry relative="1" as="geometry" />
        </mxCell>
        <mxCell id="_wMPgbxeTmveFU1VyZQl-29" style="edgeStyle=orthogonalEdgeStyle;rounded=0;orthogonalLoop=1;jettySize=auto;html=1;entryX=0.5;entryY=0;entryDx=0;entryDy=0;" edge="1" parent="1" source="_wMPgbxeTmveFU1VyZQl-24" target="_wMPgbxeTmveFU1VyZQl-28">
          <mxGeometry relative="1" as="geometry" />
        </mxCell>
        <mxCell id="_wMPgbxeTmveFU1VyZQl-24" value="PeticiÃ³n recibida" style="html=1;whiteSpace=wrap;" vertex="1" parent="1">
          <mxGeometry x="600" y="280" width="120" height="40" as="geometry" />
        </mxCell>
        <mxCell id="_wMPgbxeTmveFU1VyZQl-40" style="edgeStyle=orthogonalEdgeStyle;rounded=0;orthogonalLoop=1;jettySize=auto;html=1;entryX=0.5;entryY=0;entryDx=0;entryDy=0;" edge="1" parent="1" source="_wMPgbxeTmveFU1VyZQl-26" target="_wMPgbxeTmveFU1VyZQl-38">
          <mxGeometry relative="1" as="geometry" />
        </mxCell>
        <mxCell id="_wMPgbxeTmveFU1VyZQl-26" value="Extraer datos de la base de datos" style="html=1;whiteSpace=wrap;" vertex="1" parent="1">
          <mxGeometry x="520" y="360" width="120" height="40" as="geometry" />
        </mxCell>
        <mxCell id="_wMPgbxeTmveFU1VyZQl-32" style="edgeStyle=orthogonalEdgeStyle;rounded=0;orthogonalLoop=1;jettySize=auto;html=1;entryX=0.5;entryY=0;entryDx=0;entryDy=0;" edge="1" parent="1" source="_wMPgbxeTmveFU1VyZQl-28" target="_wMPgbxeTmveFU1VyZQl-31">
          <mxGeometry relative="1" as="geometry" />
        </mxCell>
        <mxCell id="_wMPgbxeTmveFU1VyZQl-28" value="Datos no&amp;nbsp; encontrados" style="html=1;whiteSpace=wrap;" vertex="1" parent="1">
          <mxGeometry x="680" y="360" width="120" height="40" as="geometry" />
        </mxCell>
        <mxCell id="_wMPgbxeTmveFU1VyZQl-31" value="" style="ellipse;html=1;shape=endState;fillColor=#000000;strokeColor=#000000;" vertex="1" parent="1">
          <mxGeometry x="725" y="450" width="30" height="30" as="geometry" />
        </mxCell>
        <mxCell id="_wMPgbxeTmveFU1VyZQl-33" style="edgeStyle=orthogonalEdgeStyle;rounded=0;orthogonalLoop=1;jettySize=auto;html=1;exitX=1;exitY=0.5;exitDx=0;exitDy=0;entryX=0;entryY=0.5;entryDx=0;entryDy=0;" edge="1" parent="1" source="_wMPgbxeTmveFU1VyZQl-34" target="_wMPgbxeTmveFU1VyZQl-35">
          <mxGeometry relative="1" as="geometry" />
        </mxCell>
        <mxCell id="_wMPgbxeTmveFU1VyZQl-34" value="" style="ellipse;html=1;shape=startState;fillColor=#1A1A1A;strokeColor=#666666;fontColor=#333333;" vertex="1" parent="1">
          <mxGeometry x="80" y="325" width="30" height="30" as="geometry" />
        </mxCell>
        <mxCell id="_wMPgbxeTmveFU1VyZQl-37" style="edgeStyle=orthogonalEdgeStyle;rounded=0;orthogonalLoop=1;jettySize=auto;html=1;entryX=0;entryY=0.5;entryDx=0;entryDy=0;" edge="1" parent="1" source="_wMPgbxeTmveFU1VyZQl-35" target="_wMPgbxeTmveFU1VyZQl-6">
          <mxGeometry relative="1" as="geometry">
            <Array as="points">
              <mxPoint x="220" y="220" />
            </Array>
          </mxGeometry>
        </mxCell>
        <mxCell id="_wMPgbxeTmveFU1VyZQl-35" value="Cargar documento" style="html=1;whiteSpace=wrap;" vertex="1" parent="1">
          <mxGeometry x="160" y="320" width="120" height="40" as="geometry" />
        </mxCell>
        <mxCell id="_wMPgbxeTmveFU1VyZQl-41" style="edgeStyle=orthogonalEdgeStyle;rounded=0;orthogonalLoop=1;jettySize=auto;html=1;entryX=1;entryY=0.5;entryDx=0;entryDy=0;" edge="1" parent="1" source="_wMPgbxeTmveFU1VyZQl-38" target="_wMPgbxeTmveFU1VyZQl-39">
          <mxGeometry relative="1" as="geometry" />
        </mxCell>
        <mxCell id="_wMPgbxeTmveFU1VyZQl-38" value="Generar PDF" style="html=1;whiteSpace=wrap;" vertex="1" parent="1">
          <mxGeometry x="520" y="440" width="120" height="40" as="geometry" />
        </mxCell>
        <mxCell id="_wMPgbxeTmveFU1VyZQl-43" style="edgeStyle=orthogonalEdgeStyle;rounded=0;orthogonalLoop=1;jettySize=auto;html=1;entryX=1;entryY=0.5;entryDx=0;entryDy=0;" edge="1" parent="1" source="_wMPgbxeTmveFU1VyZQl-39" target="_wMPgbxeTmveFU1VyZQl-42">
          <mxGeometry relative="1" as="geometry" />
        </mxCell>
        <mxCell id="_wMPgbxeTmveFU1VyZQl-39" value="Entregar PDF" style="html=1;whiteSpace=wrap;" vertex="1" parent="1">
          <mxGeometry x="160" y="440" width="120" height="40" as="geometry" />
        </mxCell>
        <mxCell id="_wMPgbxeTmveFU1VyZQl-42" value="" style="ellipse;html=1;shape=endState;fillColor=#000000;strokeColor=#000000;" vertex="1" parent="1">
          <mxGeometry x="80" y="445" width="30" height="30" as="geometry" />
        </mxCell>
      </root>
    </mxGraphModel>
  </diagram>
</mxfile>
